REM DIRINDEX 1\2\4\8,1\2\4\9,1\2\4\10,1\2\5\11,1\2\5\12,1\2\5\13,1\2\5\14,1\2\5\15,1\3\6\16,1\3\6\17,1\3\6\18,1\3\7\19,1\3\7\20,1\3\7\21,1\3\7\22,1\3\7\23
REM DIRNAME "folder01","folder02","folder03","folder04","folder05","folder06","folder07","folder08","folder09","folder10","folder11","folder12","folder13","folder14","folder15","folder16","folder17","folder18","folder19","folder20","folder21","folder22","folder23"
TITLE ""
FILE "LR_black_phrase_E_A05.mp3" MP3
  TRACK 01 AUDIO
    TITLE "0:"
    INDEX 01 00:00:00
  TRACK 02 AUDIO
    TITLE "16:cjc171_08361"
    INDEX 01 00:00:14
  TRACK 03 AUDIO
    TITLE "0:"
    INDEX 01 00:01:45
  TRACK 04 AUDIO
    TITLE "17:cjc171_08362"
    INDEX 01 00:01:65
  TRACK 05 AUDIO
    TITLE "0:"
    INDEX 01 00:03:65
  TRACK 06 AUDIO
    TITLE "18:cjc171_08363"
    INDEX 01 00:04:39
  TRACK 07 AUDIO
    TITLE "0:"
    INDEX 01 00:06:40
  TRACK 08 AUDIO
    TITLE "16:cjc171_08364"
    INDEX 01 00:07:48
  TRACK 09 AUDIO
    TITLE "0:"
    INDEX 01 00:09:01
  TRACK 10 AUDIO
    TITLE "17:cjc171_08365"
    INDEX 01 00:09:35
  TRACK 11 AUDIO
    TITLE "0:"
    INDEX 01 00:11:63
  TRACK 12 AUDIO
    TITLE "18:cjc171_08366"
    INDEX 01 00:12:43
  TRACK 13 AUDIO
    TITLE "0:"
    INDEX 01 00:14:73
  TRACK 14 AUDIO
    TITLE "16:cjc171_08367"
    INDEX 01 00:16:01
  TRACK 15 AUDIO
    TITLE "0:"
    INDEX 01 00:17:24
  TRACK 16 AUDIO
    TITLE "17:cjc171_08368"
    INDEX 01 00:17:54
  TRACK 17 AUDIO
    TITLE "0:"
    INDEX 01 00:20:31
  TRACK 18 AUDIO
    TITLE "18:cjc171_08369"
    INDEX 01 00:21:09
  TRACK 19 AUDIO
    TITLE "0:"
    INDEX 01 00:23:60
  TRACK 20 AUDIO
    TITLE "16:cjc171_08370"
    INDEX 01 00:24:60
  TRACK 21 AUDIO
    TITLE "0:"
    INDEX 01 00:26:02
  TRACK 22 AUDIO
    TITLE "17:cjc171_08371"
    INDEX 01 00:26:33
  TRACK 23 AUDIO
    TITLE "0:"
    INDEX 01 00:29:10
  TRACK 24 AUDIO
    TITLE "18:cjc171_08372"
    INDEX 01 00:29:57
  TRACK 25 AUDIO
    TITLE "0:"
    INDEX 01 00:32:38
  TRACK 26 AUDIO
    TITLE "16:cjc171_08373"
    INDEX 01 00:33:37
  TRACK 27 AUDIO
    TITLE "0:"
    INDEX 01 00:34:62
  TRACK 28 AUDIO
    TITLE "17:cjc171_08374"
    INDEX 01 00:35:09
  TRACK 29 AUDIO
    TITLE "0:"
    INDEX 01 00:37:37
  TRACK 30 AUDIO
    TITLE "18:cjc171_08375"
    INDEX 01 00:38:07
  TRACK 31 AUDIO
    TITLE "0:"
    INDEX 01 00:40:33
  TRACK 32 AUDIO
    TITLE "16:cjc171_08376"
    INDEX 01 00:41:27
  TRACK 33 AUDIO
    TITLE "0:"
    INDEX 01 00:42:30
  TRACK 34 AUDIO
    TITLE "17:cjc171_08377"
    INDEX 01 00:42:50
  TRACK 35 AUDIO
    TITLE "0:"
    INDEX 01 00:44:68
  TRACK 36 AUDIO
    TITLE "18:cjc171_08378"
    INDEX 01 00:45:40
  TRACK 37 AUDIO
    TITLE "0:"
    INDEX 01 00:47:59
  TRACK 38 AUDIO
    TITLE "16:cjc171_08379"
    INDEX 01 00:48:60
  TRACK 39 AUDIO
    TITLE "0:"
    INDEX 01 00:50:02
  TRACK 40 AUDIO
    TITLE "17:cjc171_08380"
    INDEX 01 00:50:22
  TRACK 41 AUDIO
    TITLE "0:"
    INDEX 01 00:52:07
  TRACK 42 AUDIO
    TITLE "18:cjc171_08381"
    INDEX 01 00:52:54
  TRACK 43 AUDIO
    TITLE "0:"
    INDEX 01 00:54:37
  TRACK 44 AUDIO
    TITLE "16:cjc171_08382"
    INDEX 01 00:55:45
  TRACK 45 AUDIO
    TITLE "0:"
    INDEX 01 00:57:10
  TRACK 46 AUDIO
    TITLE "17:cjc171_08383"
    INDEX 01 00:57:38
  TRACK 47 AUDIO
    TITLE "0:"
    INDEX 01 01:00:01
  TRACK 48 AUDIO
    TITLE "18:cjc171_08384"
    INDEX 01 01:00:54
  TRACK 49 AUDIO
    TITLE "0:"
    INDEX 01 01:03:19
  TRACK 50 AUDIO
    TITLE "16:cjc171_08385"
    INDEX 01 01:04:22
  TRACK 51 AUDIO
    TITLE "0:"
    INDEX 01 01:05:49
  TRACK 52 AUDIO
    TITLE "17:cjc171_08386"
    INDEX 01 01:06:05
  TRACK 53 AUDIO
    TITLE "0:"
    INDEX 01 01:09:13
  TRACK 54 AUDIO
    TITLE "18:cjc171_08387"
    INDEX 01 01:09:66
  TRACK 55 AUDIO
    TITLE "0:"
    INDEX 01 01:12:74
  TRACK 56 AUDIO
    TITLE "16:cjc171_08388"
    INDEX 01 01:14:03
  TRACK 57 AUDIO
    TITLE "0:"
    INDEX 01 01:15:14
  TRACK 58 AUDIO
    TITLE "17:cjc171_08389"
    INDEX 01 01:15:36
  TRACK 59 AUDIO
    TITLE "0:"
    INDEX 01 01:18:71
  TRACK 60 AUDIO
    TITLE "18:cjc171_08390"
    INDEX 01 01:19:47
  TRACK 61 AUDIO
    TITLE "0:"
    INDEX 01 01:23:10
  TRACK 62 AUDIO
    TITLE "16:cjc171_08391"
    INDEX 01 01:24:13
  TRACK 63 AUDIO
    TITLE "0:"
    INDEX 01 01:25:26
  TRACK 64 AUDIO
    TITLE "17:cjc171_08392"
    INDEX 01 01:25:48
  TRACK 65 AUDIO
    TITLE "0:"
    INDEX 01 01:28:38
  TRACK 66 AUDIO
    TITLE "18:cjc171_08393"
    INDEX 01 01:29:06
  TRACK 67 AUDIO
    TITLE "0:"
    INDEX 01 01:31:72
  TRACK 68 AUDIO
    TITLE "16:cjc171_08394"
    INDEX 01 01:32:69
  TRACK 69 AUDIO
    TITLE "0:"
    INDEX 01 01:34:02
  TRACK 70 AUDIO
    TITLE "17:cjc171_08395"
    INDEX 01 01:34:23
  TRACK 71 AUDIO
    TITLE "0:"
    INDEX 01 01:36:65
  TRACK 72 AUDIO
    TITLE "18:cjc171_08396"
    INDEX 01 01:37:37
  TRACK 73 AUDIO
    TITLE "0:"
    INDEX 01 01:40:04
  TRACK 74 AUDIO
    TITLE "16:cjc171_08397"
    INDEX 01 01:41:10
  TRACK 75 AUDIO
    TITLE "0:"
    INDEX 01 01:42:19
  TRACK 76 AUDIO
    TITLE "17:cjc171_08398"
    INDEX 01 01:42:46
  TRACK 77 AUDIO
    TITLE "0:"
    INDEX 01 01:44:39
  TRACK 78 AUDIO
    TITLE "18:cjc171_08399"
    INDEX 01 01:45:19
  TRACK 79 AUDIO
    TITLE "0:"
    INDEX 01 01:47:10
  TRACK 80 AUDIO
    TITLE "16:cjc171_08400"
    INDEX 01 01:48:19
  TRACK 81 AUDIO
    TITLE "0:"
    INDEX 01 01:49:27
  TRACK 82 AUDIO
    TITLE "17:cjc171_08401"
    INDEX 01 01:49:58
  TRACK 83 AUDIO
    TITLE "0:"
    INDEX 01 01:51:61
  TRACK 84 AUDIO
    TITLE "18:cjc171_08402"
    INDEX 01 01:52:39
  TRACK 85 AUDIO
    TITLE "0:"
    INDEX 01 01:54:43
  TRACK 86 AUDIO
    TITLE "16:cjc171_08403"
    INDEX 01 01:55:47
  TRACK 87 AUDIO
    TITLE "0:"
    INDEX 01 01:57:01
  TRACK 88 AUDIO
    TITLE "17:cjc171_08404"
    INDEX 01 01:57:32
  TRACK 89 AUDIO
    TITLE "0:"
    INDEX 01 01:59:25
  TRACK 90 AUDIO
    TITLE "18:cjc171_08405"
    INDEX 01 02:00:05
  TRACK 91 AUDIO
    TITLE "0:"
    INDEX 01 02:01:73
  TRACK 92 AUDIO
    TITLE "16:cjc171_08406"
    INDEX 01 02:02:72
  TRACK 93 AUDIO
    TITLE "0:"
    INDEX 01 02:04:05
  TRACK 94 AUDIO
    TITLE "17:cjc171_08407"
    INDEX 01 02:04:30
  TRACK 95 AUDIO
    TITLE "0:"
    INDEX 01 02:06:27
  TRACK 96 AUDIO
    TITLE "18:cjc171_08408"
    INDEX 01 02:06:72
  TRACK 97 AUDIO
    TITLE "0:"
    INDEX 01 02:08:69
  TRACK 98 AUDIO
    TITLE "16:cjc171_08409"
    INDEX 01 02:09:65
  TRACK 99 AUDIO
    TITLE "0:"
    INDEX 01 02:11:20
  TRACK 100 AUDIO
    TITLE "17:cjc171_08410"
    INDEX 01 02:11:42
  TRACK 101 AUDIO
    TITLE "0:"
    INDEX 01 02:13:64
  TRACK 102 AUDIO
    TITLE "18:cjc171_08411"
    INDEX 01 02:14:34
  TRACK 103 AUDIO
    TITLE "0:"
    INDEX 01 02:16:55
  TRACK 104 AUDIO
    TITLE "16:cjc171_08412"
    INDEX 01 02:17:46
  TRACK 105 AUDIO
    TITLE "0:"
    INDEX 01 02:18:54
  TRACK 106 AUDIO
    TITLE "17:cjc171_08413"
    INDEX 01 02:19:00
  TRACK 107 AUDIO
    TITLE "0:"
    INDEX 01 02:21:66
  TRACK 108 AUDIO
    TITLE "18:cjc171_08414"
    INDEX 01 02:22:38
  TRACK 109 AUDIO
    TITLE "0:"
    INDEX 01 02:25:28
  TRACK 110 AUDIO
    TITLE "16:cjc171_08415"
    INDEX 01 02:26:30
  TRACK 111 AUDIO
    TITLE "0:"
    INDEX 01 02:27:47
  TRACK 112 AUDIO
    TITLE "17:cjc171_08416"
    INDEX 01 02:28:01
  TRACK 113 AUDIO
    TITLE "0:"
    INDEX 01 02:30:49
  TRACK 114 AUDIO
    TITLE "18:cjc171_08417"
    INDEX 01 02:31:33
  TRACK 115 AUDIO
    TITLE "0:"
    INDEX 01 02:34:04
  TRACK 116 AUDIO
    TITLE "16:cjc171_08418"
    INDEX 01 02:35:13
  TRACK 117 AUDIO
    TITLE "0:"
    INDEX 01 02:36:36
  TRACK 118 AUDIO
    TITLE "17:cjc171_08419"
    INDEX 01 02:36:67
  TRACK 119 AUDIO
    TITLE "0:"
    INDEX 01 02:39:32
  TRACK 120 AUDIO
    TITLE "18:cjc171_08420"
    INDEX 01 02:40:14
  TRACK 121 AUDIO
    TITLE "0:"
    INDEX 01 02:42:54
  TRACK 122 AUDIO
    TITLE "16:cjc171_08421"
    INDEX 01 02:43:64
  TRACK 123 AUDIO
    TITLE "0:"
    INDEX 01 02:45:11
  TRACK 124 AUDIO
    TITLE "17:cjc171_08422"
    INDEX 01 02:45:45
  TRACK 125 AUDIO
    TITLE "0:"
    INDEX 01 02:47:26
  TRACK 126 AUDIO
    TITLE "18:cjc171_08423"
    INDEX 01 02:48:10
  TRACK 127 AUDIO
    TITLE "0:"
    INDEX 01 02:49:66
  TRACK 128 AUDIO
    TITLE "16:cjc171_08424"
    INDEX 01 02:50:66
  TRACK 129 AUDIO
    TITLE "0:"
    INDEX 01 02:52:12
  TRACK 130 AUDIO
    TITLE "17:cjc171_08425"
    INDEX 01 02:52:37
  TRACK 131 AUDIO
    TITLE "0:"
    INDEX 01 02:55:59
  TRACK 132 AUDIO
    TITLE "18:cjc171_08426"
    INDEX 01 02:56:35
  TRACK 133 AUDIO
    TITLE "0:"
    INDEX 01 02:59:57
  TRACK 134 AUDIO
    TITLE "16:cjc171_08427"
    INDEX 01 03:00:52
  TRACK 135 AUDIO
    TITLE "0:"
    INDEX 01 03:02:02
  TRACK 136 AUDIO
    TITLE "17:cjc171_08428"
    INDEX 01 03:02:24
  TRACK 137 AUDIO
    TITLE "0:"
    INDEX 01 03:04:36
  TRACK 138 AUDIO
    TITLE "18:cjc171_08429"
    INDEX 01 03:05:04
  TRACK 139 AUDIO
    TITLE "0:"
    INDEX 01 03:07:17
  TRACK 140 AUDIO
    TITLE "16:cjc171_08430"
    INDEX 01 03:08:12
  TRACK 141 AUDIO
    TITLE "0:"
    INDEX 01 03:09:20
  TRACK 142 AUDIO
    TITLE "17:cjc171_08431"
    INDEX 01 03:09:41
  TRACK 143 AUDIO
    TITLE "0:"
    INDEX 01 03:11:21
  TRACK 144 AUDIO
    TITLE "18:cjc171_08432"
    INDEX 01 03:11:64
  TRACK 145 AUDIO
    TITLE "0:"
    INDEX 01 03:13:43
  TRACK 146 AUDIO
    TITLE "16:cjc171_08433"
    INDEX 01 03:14:43
  TRACK 147 AUDIO
    TITLE "0:"
    INDEX 01 03:15:71
  TRACK 148 AUDIO
    TITLE "17:cjc171_08434"
    INDEX 01 03:16:28
  TRACK 149 AUDIO
    TITLE "0:"
    INDEX 01 03:18:34
  TRACK 150 AUDIO
    TITLE "18:cjc171_08435"
    INDEX 01 03:19:10
  TRACK 151 AUDIO
    TITLE "0:"
    INDEX 01 03:21:17
  TRACK 152 AUDIO
    TITLE "16:cjc171_08436"
    INDEX 01 03:22:19
  TRACK 153 AUDIO
    TITLE "0:"
    INDEX 01 03:23:18
  TRACK 154 AUDIO
    TITLE "17:cjc171_08437"
    INDEX 01 03:23:47
  TRACK 155 AUDIO
    TITLE "0:"
    INDEX 01 03:25:19
  TRACK 156 AUDIO
    TITLE "18:cjc171_08438"
    INDEX 01 03:25:72
  TRACK 157 AUDIO
    TITLE "0:"
    INDEX 01 03:27:43
  TRACK 158 AUDIO
    TITLE "16:cjc171_08439"
    INDEX 01 03:28:47
  TRACK 159 AUDIO
    TITLE "0:"
    INDEX 01 03:29:66
  TRACK 160 AUDIO
    TITLE "17:cjc171_08440"
    INDEX 01 03:30:20
  TRACK 161 AUDIO
    TITLE "0:"
    INDEX 01 03:32:50
  TRACK 162 AUDIO
    TITLE "18:cjc171_08441"
    INDEX 01 03:33:32
  TRACK 163 AUDIO
    TITLE "0:"
    INDEX 01 03:35:64
  TRACK 164 AUDIO
    TITLE "16:cjc171_08442"
    INDEX 01 03:36:66
  TRACK 165 AUDIO
    TITLE "0:"
    INDEX 01 03:38:23
  TRACK 166 AUDIO
    TITLE "17:cjc171_08443"
    INDEX 01 03:38:45
  TRACK 167 AUDIO
    TITLE "0:"
    INDEX 01 03:41:22
  TRACK 168 AUDIO
    TITLE "18:cjc171_08444"
    INDEX 01 03:41:67
  TRACK 169 AUDIO
    TITLE "0:"
    INDEX 01 03:44:46
  TRACK 170 AUDIO
    TITLE "16:cjc171_08445"
    INDEX 01 03:45:41
  TRACK 171 AUDIO
    TITLE "0:"
    INDEX 01 03:46:46
  TRACK 172 AUDIO
    TITLE "17:cjc171_08446"
    INDEX 01 03:46:66
  TRACK 173 AUDIO
    TITLE "0:"
    INDEX 01 03:48:71
  TRACK 174 AUDIO
    TITLE "18:cjc171_08447"
    INDEX 01 03:49:39
  TRACK 175 AUDIO
    TITLE "0:"
    INDEX 01 03:51:44
  TRACK 176 AUDIO
    TITLE "16:cjc171_08448"
    INDEX 01 03:52:37
  TRACK 177 AUDIO
    TITLE "0:"
    INDEX 01 03:53:70
  TRACK 178 AUDIO
    TITLE "17:cjc171_08449"
    INDEX 01 03:54:15
  TRACK 179 AUDIO
    TITLE "0:"
    INDEX 01 03:56:21
  TRACK 180 AUDIO
    TITLE "18:cjc171_08450"
    INDEX 01 03:56:68
  TRACK 181 AUDIO
    TITLE "0:"
    INDEX 01 03:59:00
